<mxfile host="Electron" agent="Mozilla/5.0 (Windows NT 10.0; Win64; x64) AppleWebKit/537.36 (KHTML, like Gecko) draw.io/28.0.6 Chrome/138.0.7204.100 Electron/37.2.3 Safari/537.36" version="28.0.6">
  <diagram name="Page-1" id="nlm8cDBIPkwoispF9AH4">
    <mxGraphModel dx="2050" dy="2238" grid="1" gridSize="10" guides="1" tooltips="1" connect="1" arrows="1" fold="1" page="1" pageScale="1" pageWidth="850" pageHeight="1100" math="0" shadow="0">
      <root>
        <mxCell id="0" />
        <mxCell id="1" parent="0" />
        <mxCell id="vexe7eD_JmpIkKytq5_M-1" value="&lt;font style=&quot;font-size: 16px;&quot;&gt;Book&lt;/font&gt;" style="rounded=0;whiteSpace=wrap;html=1;" parent="1" vertex="1">
          <mxGeometry x="-100" y="200" width="120" height="60" as="geometry" />
        </mxCell>
        <mxCell id="vexe7eD_JmpIkKytq5_M-2" value="Publish_date" style="ellipse;whiteSpace=wrap;html=1;" parent="1" vertex="1">
          <mxGeometry x="-40" y="290" width="92.5" height="40" as="geometry" />
        </mxCell>
        <mxCell id="vexe7eD_JmpIkKytq5_M-3" value="Price" style="ellipse;whiteSpace=wrap;html=1;" parent="1" vertex="1">
          <mxGeometry x="-40" y="110" width="80" height="40" as="geometry" />
        </mxCell>
        <mxCell id="vexe7eD_JmpIkKytq5_M-4" value="Title" style="ellipse;whiteSpace=wrap;html=1;" parent="1" vertex="1">
          <mxGeometry x="-120" y="120" width="80" height="40" as="geometry" />
        </mxCell>
        <mxCell id="vexe7eD_JmpIkKytq5_M-5" value="Isbn" style="ellipse;whiteSpace=wrap;html=1;" parent="1" vertex="1">
          <mxGeometry x="40" y="130" width="90" height="40" as="geometry" />
        </mxCell>
        <mxCell id="vexe7eD_JmpIkKytq5_M-6" value="&lt;font&gt;&lt;u style=&quot;&quot;&gt;Book_id&lt;/u&gt;&lt;/font&gt;" style="ellipse;whiteSpace=wrap;html=1;" parent="1" vertex="1">
          <mxGeometry x="-160" y="290" width="90" height="40" as="geometry" />
        </mxCell>
        <mxCell id="vexe7eD_JmpIkKytq5_M-7" value="" style="endArrow=none;html=1;rounded=0;entryX=0.409;entryY=1.067;entryDx=0;entryDy=0;entryPerimeter=0;" parent="1" target="vexe7eD_JmpIkKytq5_M-3" edge="1">
          <mxGeometry width="50" height="50" relative="1" as="geometry">
            <mxPoint x="-20" y="200" as="sourcePoint" />
            <mxPoint x="30" y="150" as="targetPoint" />
          </mxGeometry>
        </mxCell>
        <mxCell id="vexe7eD_JmpIkKytq5_M-8" value="" style="endArrow=none;html=1;rounded=0;entryX=0.368;entryY=0.019;entryDx=0;entryDy=0;exitX=0.642;exitY=1.004;exitDx=0;exitDy=0;exitPerimeter=0;entryPerimeter=0;" parent="1" source="vexe7eD_JmpIkKytq5_M-1" target="vexe7eD_JmpIkKytq5_M-2" edge="1">
          <mxGeometry width="50" height="50" relative="1" as="geometry">
            <mxPoint y="200" as="sourcePoint" />
            <mxPoint x="50" y="150" as="targetPoint" />
            <Array as="points" />
          </mxGeometry>
        </mxCell>
        <mxCell id="vexe7eD_JmpIkKytq5_M-9" value="" style="endArrow=none;html=1;rounded=0;entryX=0.603;entryY=1.038;entryDx=0;entryDy=0;entryPerimeter=0;" parent="1" target="vexe7eD_JmpIkKytq5_M-4" edge="1">
          <mxGeometry width="50" height="50" relative="1" as="geometry">
            <mxPoint x="-35" y="200" as="sourcePoint" />
            <mxPoint x="-40" y="160" as="targetPoint" />
          </mxGeometry>
        </mxCell>
        <mxCell id="vexe7eD_JmpIkKytq5_M-10" value="" style="endArrow=none;html=1;rounded=0;entryX=0.242;entryY=0.95;entryDx=0;entryDy=0;exitX=0.852;exitY=0;exitDx=0;exitDy=0;exitPerimeter=0;entryPerimeter=0;" parent="1" source="vexe7eD_JmpIkKytq5_M-1" target="vexe7eD_JmpIkKytq5_M-5" edge="1">
          <mxGeometry width="50" height="50" relative="1" as="geometry">
            <mxPoint x="-55" y="200" as="sourcePoint" />
            <mxPoint x="-5" y="150" as="targetPoint" />
          </mxGeometry>
        </mxCell>
        <mxCell id="vexe7eD_JmpIkKytq5_M-11" value="" style="endArrow=none;html=1;rounded=0;entryX=0.681;entryY=0.054;entryDx=0;entryDy=0;exitX=0.164;exitY=0.986;exitDx=0;exitDy=0;exitPerimeter=0;entryPerimeter=0;" parent="1" source="vexe7eD_JmpIkKytq5_M-1" target="vexe7eD_JmpIkKytq5_M-6" edge="1">
          <mxGeometry width="50" height="50" relative="1" as="geometry">
            <mxPoint x="-70" y="200" as="sourcePoint" />
            <mxPoint x="-20" y="150" as="targetPoint" />
          </mxGeometry>
        </mxCell>
        <mxCell id="vexe7eD_JmpIkKytq5_M-12" value="&lt;font style=&quot;font-size: 16px;&quot;&gt;Author&lt;/font&gt;" style="rounded=0;whiteSpace=wrap;html=1;" parent="1" vertex="1">
          <mxGeometry x="-590" y="120" width="120" height="60" as="geometry" />
        </mxCell>
        <mxCell id="vexe7eD_JmpIkKytq5_M-13" value="Author_name" style="ellipse;whiteSpace=wrap;html=1;" parent="1" vertex="1">
          <mxGeometry x="-520" y="50" width="80" height="40" as="geometry" />
        </mxCell>
        <mxCell id="vexe7eD_JmpIkKytq5_M-14" value="&lt;u&gt;Author_id&lt;/u&gt;" style="ellipse;whiteSpace=wrap;html=1;" parent="1" vertex="1">
          <mxGeometry x="-640" y="50" width="100" height="40" as="geometry" />
        </mxCell>
        <mxCell id="vexe7eD_JmpIkKytq5_M-15" value="" style="endArrow=none;html=1;rounded=0;entryX=0.324;entryY=0.95;entryDx=0;entryDy=0;entryPerimeter=0;" parent="1" target="vexe7eD_JmpIkKytq5_M-13" edge="1">
          <mxGeometry width="50" height="50" relative="1" as="geometry">
            <mxPoint x="-520" y="120" as="sourcePoint" />
            <mxPoint x="-470" y="70" as="targetPoint" />
          </mxGeometry>
        </mxCell>
        <mxCell id="vexe7eD_JmpIkKytq5_M-16" value="" style="endArrow=none;html=1;rounded=0;exitX=0.351;exitY=-0.022;exitDx=0;exitDy=0;exitPerimeter=0;" parent="1" edge="1">
          <mxGeometry width="50" height="50" relative="1" as="geometry">
            <mxPoint x="-539.9999999999999" y="120" as="sourcePoint" />
            <mxPoint x="-572.12" y="88.32" as="targetPoint" />
          </mxGeometry>
        </mxCell>
        <mxCell id="vexe7eD_JmpIkKytq5_M-17" value="&lt;font style=&quot;font-size: 16px;&quot;&gt;Category&lt;/font&gt;" style="rounded=0;whiteSpace=wrap;html=1;" parent="1" vertex="1">
          <mxGeometry x="-560" y="315" width="120" height="60" as="geometry" />
        </mxCell>
        <mxCell id="vexe7eD_JmpIkKytq5_M-18" value="Category_name" style="ellipse;whiteSpace=wrap;html=1;" parent="1" vertex="1">
          <mxGeometry x="-480" y="395" width="100" height="50" as="geometry" />
        </mxCell>
        <mxCell id="vexe7eD_JmpIkKytq5_M-19" value="&lt;font&gt;&lt;u&gt;Category_id&lt;/u&gt;&lt;/font&gt;" style="ellipse;whiteSpace=wrap;html=1;" parent="1" vertex="1">
          <mxGeometry x="-620" y="395" width="100" height="50" as="geometry" />
        </mxCell>
        <mxCell id="vexe7eD_JmpIkKytq5_M-20" value="" style="endArrow=none;html=1;rounded=0;exitX=0.753;exitY=0.095;exitDx=0;exitDy=0;exitPerimeter=0;" parent="1" source="vexe7eD_JmpIkKytq5_M-19" edge="1">
          <mxGeometry width="50" height="50" relative="1" as="geometry">
            <mxPoint x="-570" y="425" as="sourcePoint" />
            <mxPoint x="-520" y="375" as="targetPoint" />
          </mxGeometry>
        </mxCell>
        <mxCell id="vexe7eD_JmpIkKytq5_M-21" value="" style="endArrow=none;html=1;rounded=0;exitX=0.349;exitY=0.036;exitDx=0;exitDy=0;exitPerimeter=0;" parent="1" source="vexe7eD_JmpIkKytq5_M-18" edge="1">
          <mxGeometry width="50" height="50" relative="1" as="geometry">
            <mxPoint x="-450" y="395" as="sourcePoint" />
            <mxPoint x="-480" y="375" as="targetPoint" />
          </mxGeometry>
        </mxCell>
        <mxCell id="vexe7eD_JmpIkKytq5_M-22" value="&lt;font style=&quot;font-size: 16px;&quot;&gt;Branch&lt;/font&gt;" style="rounded=0;whiteSpace=wrap;html=1;" parent="1" vertex="1">
          <mxGeometry x="120" y="490" width="120" height="60" as="geometry" />
        </mxCell>
        <mxCell id="vexe7eD_JmpIkKytq5_M-23" value="Branch_name" style="ellipse;whiteSpace=wrap;html=1;" parent="1" vertex="1">
          <mxGeometry x="130" y="580" width="80" height="40" as="geometry" />
        </mxCell>
        <mxCell id="vexe7eD_JmpIkKytq5_M-24" value="&lt;u&gt;Branch_id&lt;/u&gt;" style="ellipse;whiteSpace=wrap;html=1;" parent="1" vertex="1">
          <mxGeometry x="20" y="570" width="100" height="50" as="geometry" />
        </mxCell>
        <mxCell id="vexe7eD_JmpIkKytq5_M-25" value="" style="endArrow=none;html=1;rounded=0;exitX=0.561;exitY=0.007;exitDx=0;exitDy=0;exitPerimeter=0;entryX=0.169;entryY=1.01;entryDx=0;entryDy=0;entryPerimeter=0;" parent="1" source="vexe7eD_JmpIkKytq5_M-24" target="vexe7eD_JmpIkKytq5_M-22" edge="1">
          <mxGeometry width="50" height="50" relative="1" as="geometry">
            <mxPoint x="20" y="600" as="sourcePoint" />
            <mxPoint x="70" y="550" as="targetPoint" />
          </mxGeometry>
        </mxCell>
        <mxCell id="vexe7eD_JmpIkKytq5_M-26" value="" style="endArrow=none;html=1;rounded=0;exitX=0.541;exitY=0.033;exitDx=0;exitDy=0;exitPerimeter=0;" parent="1" source="vexe7eD_JmpIkKytq5_M-23" edge="1">
          <mxGeometry width="50" height="50" relative="1" as="geometry">
            <mxPoint x="188.8200000000001" y="576.5" as="sourcePoint" />
            <mxPoint x="171.18" y="550" as="targetPoint" />
          </mxGeometry>
        </mxCell>
        <mxCell id="vexe7eD_JmpIkKytq5_M-27" value="&lt;font style=&quot;font-size: 16px;&quot;&gt;Employee&lt;/font&gt;" style="rounded=0;whiteSpace=wrap;html=1;" parent="1" vertex="1">
          <mxGeometry x="500" y="430" width="120" height="60" as="geometry" />
        </mxCell>
        <mxCell id="vexe7eD_JmpIkKytq5_M-28" value="Address" style="ellipse;whiteSpace=wrap;html=1;" parent="1" vertex="1">
          <mxGeometry x="220" y="575" width="90" height="40" as="geometry" />
        </mxCell>
        <mxCell id="vexe7eD_JmpIkKytq5_M-29" value="" style="endArrow=none;html=1;rounded=0;exitX=0.216;exitY=0.07;exitDx=0;exitDy=0;exitPerimeter=0;" parent="1" source="vexe7eD_JmpIkKytq5_M-28" edge="1">
          <mxGeometry width="50" height="50" relative="1" as="geometry">
            <mxPoint x="170" y="600" as="sourcePoint" />
            <mxPoint x="220" y="550" as="targetPoint" />
          </mxGeometry>
        </mxCell>
        <mxCell id="vexe7eD_JmpIkKytq5_M-31" value="Employee_name" style="ellipse;whiteSpace=wrap;html=1;" parent="1" vertex="1">
          <mxGeometry x="520" y="540" width="100" height="40" as="geometry" />
        </mxCell>
        <mxCell id="vexe7eD_JmpIkKytq5_M-32" value="&lt;u&gt;Employee_id&lt;/u&gt;" style="ellipse;whiteSpace=wrap;html=1;" parent="1" vertex="1">
          <mxGeometry x="410" y="520" width="100" height="50" as="geometry" />
        </mxCell>
        <mxCell id="vexe7eD_JmpIkKytq5_M-33" value="" style="endArrow=none;html=1;rounded=0;exitX=0.168;exitY=0.997;exitDx=0;exitDy=0;entryX=0.563;entryY=0.033;entryDx=0;entryDy=0;entryPerimeter=0;exitPerimeter=0;" parent="1" source="vexe7eD_JmpIkKytq5_M-27" target="vexe7eD_JmpIkKytq5_M-32" edge="1">
          <mxGeometry width="50" height="50" relative="1" as="geometry">
            <mxPoint x="405" y="445" as="sourcePoint" />
            <mxPoint x="455" y="395" as="targetPoint" />
          </mxGeometry>
        </mxCell>
        <mxCell id="vexe7eD_JmpIkKytq5_M-34" value="" style="endArrow=none;html=1;rounded=0;exitX=0.5;exitY=1;exitDx=0;exitDy=0;entryX=0.5;entryY=0;entryDx=0;entryDy=0;" parent="1" source="vexe7eD_JmpIkKytq5_M-27" target="vexe7eD_JmpIkKytq5_M-31" edge="1">
          <mxGeometry width="50" height="50" relative="1" as="geometry">
            <mxPoint x="510" y="440" as="sourcePoint" />
            <mxPoint x="560" y="390" as="targetPoint" />
            <Array as="points" />
          </mxGeometry>
        </mxCell>
        <mxCell id="vexe7eD_JmpIkKytq5_M-36" value="&lt;font style=&quot;font-size: 16px;&quot;&gt;Sale&lt;/font&gt;" style="rounded=0;whiteSpace=wrap;html=1;" parent="1" vertex="1">
          <mxGeometry x="20" y="-95" width="120" height="60" as="geometry" />
        </mxCell>
        <mxCell id="vexe7eD_JmpIkKytq5_M-37" value="&lt;font style=&quot;font-size: 16px;&quot;&gt;Customer&lt;/font&gt;" style="rounded=0;whiteSpace=wrap;html=1;" parent="1" vertex="1">
          <mxGeometry x="410" y="-35" width="120" height="60" as="geometry" />
        </mxCell>
        <mxCell id="vexe7eD_JmpIkKytq5_M-38" value="Phone" style="ellipse;whiteSpace=wrap;html=1;" parent="1" vertex="1">
          <mxGeometry x="600" y="-45" width="80" height="40" as="geometry" />
        </mxCell>
        <mxCell id="vexe7eD_JmpIkKytq5_M-39" value="Email" style="ellipse;whiteSpace=wrap;html=1;" parent="1" vertex="1">
          <mxGeometry x="530" y="-85" width="90" height="40" as="geometry" />
        </mxCell>
        <mxCell id="vexe7eD_JmpIkKytq5_M-40" value="Customer_name" style="ellipse;whiteSpace=wrap;html=1;" parent="1" vertex="1">
          <mxGeometry x="420" y="-105" width="100" height="50" as="geometry" />
        </mxCell>
        <mxCell id="vexe7eD_JmpIkKytq5_M-41" value="&lt;u&gt;Customer_id&lt;/u&gt;" style="ellipse;whiteSpace=wrap;html=1;" parent="1" vertex="1">
          <mxGeometry x="310" y="-105" width="100" height="50" as="geometry" />
        </mxCell>
        <mxCell id="vexe7eD_JmpIkKytq5_M-42" value="" style="endArrow=none;html=1;rounded=0;entryX=0.042;entryY=0.71;entryDx=0;entryDy=0;entryPerimeter=0;" parent="1" target="vexe7eD_JmpIkKytq5_M-38" edge="1">
          <mxGeometry width="50" height="50" relative="1" as="geometry">
            <mxPoint x="530" y="5" as="sourcePoint" />
            <mxPoint x="580" y="-45" as="targetPoint" />
          </mxGeometry>
        </mxCell>
        <mxCell id="vexe7eD_JmpIkKytq5_M-43" value="" style="endArrow=none;html=1;rounded=0;entryX=0.29;entryY=1.005;entryDx=0;entryDy=0;entryPerimeter=0;" parent="1" target="vexe7eD_JmpIkKytq5_M-39" edge="1">
          <mxGeometry width="50" height="50" relative="1" as="geometry">
            <mxPoint x="530" y="-15" as="sourcePoint" />
            <mxPoint x="580" y="-65" as="targetPoint" />
          </mxGeometry>
        </mxCell>
        <mxCell id="vexe7eD_JmpIkKytq5_M-44" value="" style="endArrow=none;html=1;rounded=0;entryX=0.439;entryY=1.021;entryDx=0;entryDy=0;entryPerimeter=0;" parent="1" target="vexe7eD_JmpIkKytq5_M-40" edge="1">
          <mxGeometry width="50" height="50" relative="1" as="geometry">
            <mxPoint x="465" y="-35" as="sourcePoint" />
            <mxPoint x="515" y="-85" as="targetPoint" />
          </mxGeometry>
        </mxCell>
        <mxCell id="vexe7eD_JmpIkKytq5_M-45" value="" style="endArrow=none;html=1;rounded=0;entryX=0.739;entryY=0.899;entryDx=0;entryDy=0;entryPerimeter=0;" parent="1" target="vexe7eD_JmpIkKytq5_M-41" edge="1">
          <mxGeometry width="50" height="50" relative="1" as="geometry">
            <mxPoint x="430" y="-35" as="sourcePoint" />
            <mxPoint x="480" y="-85" as="targetPoint" />
          </mxGeometry>
        </mxCell>
        <mxCell id="vexe7eD_JmpIkKytq5_M-46" value="Type" style="ellipse;whiteSpace=wrap;html=1;" parent="1" vertex="1">
          <mxGeometry x="190" y="-90" width="90" height="40" as="geometry" />
        </mxCell>
        <mxCell id="vexe7eD_JmpIkKytq5_M-48" value="Sale_date" style="ellipse;whiteSpace=wrap;html=1;" parent="1" vertex="1">
          <mxGeometry x="70" y="-155" width="80" height="40" as="geometry" />
        </mxCell>
        <mxCell id="vexe7eD_JmpIkKytq5_M-49" value="&lt;u&gt;Sale_id&lt;/u&gt;" style="ellipse;whiteSpace=wrap;html=1;" parent="1" vertex="1">
          <mxGeometry x="-30" y="-155" width="90" height="40" as="geometry" />
        </mxCell>
        <mxCell id="vexe7eD_JmpIkKytq5_M-50" value="Branch_id (FK)" style="ellipse;whiteSpace=wrap;html=1;" parent="1" vertex="1">
          <mxGeometry x="630" y="525" width="90" height="40" as="geometry" />
        </mxCell>
        <mxCell id="vexe7eD_JmpIkKytq5_M-51" value="" style="endArrow=none;html=1;rounded=0;entryX=0.356;entryY=0.05;entryDx=0;entryDy=0;exitX=0.85;exitY=0.993;exitDx=0;exitDy=0;exitPerimeter=0;entryPerimeter=0;" parent="1" target="vexe7eD_JmpIkKytq5_M-50" edge="1" source="vexe7eD_JmpIkKytq5_M-27">
          <mxGeometry width="50" height="50" relative="1" as="geometry">
            <mxPoint x="620" y="470" as="sourcePoint" />
            <mxPoint x="670" y="420" as="targetPoint" />
          </mxGeometry>
        </mxCell>
        <mxCell id="vexe7eD_JmpIkKytq5_M-52" value="Customer_id (FK)" style="ellipse;whiteSpace=wrap;html=1;" parent="1" vertex="1">
          <mxGeometry x="160" y="-155" width="110" height="50" as="geometry" />
        </mxCell>
        <mxCell id="vexe7eD_JmpIkKytq5_M-53" value="" style="endArrow=none;html=1;rounded=0;exitX=0.648;exitY=0.021;exitDx=0;exitDy=0;exitPerimeter=0;" parent="1" source="vexe7eD_JmpIkKytq5_M-36" edge="1">
          <mxGeometry width="50" height="50" relative="1" as="geometry">
            <mxPoint x="60" y="-65" as="sourcePoint" />
            <mxPoint x="110" y="-115" as="targetPoint" />
          </mxGeometry>
        </mxCell>
        <mxCell id="vexe7eD_JmpIkKytq5_M-54" value="" style="endArrow=none;html=1;rounded=0;entryX=0.081;entryY=0.774;entryDx=0;entryDy=0;entryPerimeter=0;" parent="1" target="vexe7eD_JmpIkKytq5_M-52" edge="1">
          <mxGeometry width="50" height="50" relative="1" as="geometry">
            <mxPoint x="120" y="-95" as="sourcePoint" />
            <mxPoint x="170" y="-145" as="targetPoint" />
          </mxGeometry>
        </mxCell>
        <mxCell id="vexe7eD_JmpIkKytq5_M-55" value="" style="endArrow=none;html=1;rounded=0;entryX=0.718;entryY=0.914;entryDx=0;entryDy=0;entryPerimeter=0;" parent="1" target="vexe7eD_JmpIkKytq5_M-49" edge="1">
          <mxGeometry width="50" height="50" relative="1" as="geometry">
            <mxPoint x="55" y="-95" as="sourcePoint" />
            <mxPoint x="105" y="-145" as="targetPoint" />
          </mxGeometry>
        </mxCell>
        <mxCell id="vexe7eD_JmpIkKytq5_M-56" value="" style="endArrow=none;html=1;rounded=0;exitX=0;exitY=0.5;exitDx=0;exitDy=0;" parent="1" source="vexe7eD_JmpIkKytq5_M-36" target="vexe7eD_JmpIkKytq5_M-57" edge="1">
          <mxGeometry width="50" height="50" relative="1" as="geometry">
            <mxPoint x="50" y="5" as="sourcePoint" />
            <mxPoint x="100" y="-45" as="targetPoint" />
          </mxGeometry>
        </mxCell>
        <mxCell id="vexe7eD_JmpIkKytq5_M-57" value="Employee_id (FK)" style="ellipse;whiteSpace=wrap;html=1;" parent="1" vertex="1">
          <mxGeometry x="-120" y="-125" width="100" height="40" as="geometry" />
        </mxCell>
        <mxCell id="vexe7eD_JmpIkKytq5_M-58" value="&lt;font style=&quot;font-size: 16px;&quot;&gt;Review&lt;/font&gt;" style="rounded=0;whiteSpace=wrap;html=1;" parent="1" vertex="1">
          <mxGeometry x="490" y="180" width="120" height="60" as="geometry" />
        </mxCell>
        <mxCell id="vexe7eD_JmpIkKytq5_M-59" value="Customer_id (FK)" style="ellipse;whiteSpace=wrap;html=1;" parent="1" vertex="1">
          <mxGeometry x="455" y="260" width="105" height="40" as="geometry" />
        </mxCell>
        <mxCell id="vexe7eD_JmpIkKytq5_M-60" value="&lt;u&gt;Review_id&lt;/u&gt;" style="ellipse;whiteSpace=wrap;html=1;" parent="1" vertex="1">
          <mxGeometry x="575" y="130" width="90" height="40" as="geometry" />
        </mxCell>
        <mxCell id="vexe7eD_JmpIkKytq5_M-61" value="Rating" style="ellipse;whiteSpace=wrap;html=1;" parent="1" vertex="1">
          <mxGeometry x="630" y="180" width="80" height="30" as="geometry" />
        </mxCell>
        <mxCell id="vexe7eD_JmpIkKytq5_M-62" value="Comment" style="ellipse;whiteSpace=wrap;html=1;" parent="1" vertex="1">
          <mxGeometry x="622.5" y="220" width="95" height="40" as="geometry" />
        </mxCell>
        <mxCell id="vexe7eD_JmpIkKytq5_M-63" value="Book_id (FK)" style="ellipse;whiteSpace=wrap;html=1;" parent="1" vertex="1">
          <mxGeometry x="565" y="260" width="100" height="40" as="geometry" />
        </mxCell>
        <mxCell id="vexe7eD_JmpIkKytq5_M-64" value="" style="endArrow=none;html=1;rounded=0;entryX=0.25;entryY=1;entryDx=0;entryDy=0;" parent="1" target="vexe7eD_JmpIkKytq5_M-58" edge="1">
          <mxGeometry width="50" height="50" relative="1" as="geometry">
            <mxPoint x="510" y="260" as="sourcePoint" />
            <mxPoint x="560" y="210" as="targetPoint" />
          </mxGeometry>
        </mxCell>
        <mxCell id="vexe7eD_JmpIkKytq5_M-65" value="" style="endArrow=none;html=1;rounded=0;entryX=0.629;entryY=0.979;entryDx=0;entryDy=0;entryPerimeter=0;" parent="1" target="vexe7eD_JmpIkKytq5_M-58" edge="1">
          <mxGeometry width="50" height="50" relative="1" as="geometry">
            <mxPoint x="595" y="260" as="sourcePoint" />
            <mxPoint x="645" y="210" as="targetPoint" />
          </mxGeometry>
        </mxCell>
        <mxCell id="vexe7eD_JmpIkKytq5_M-66" value="" style="endArrow=none;html=1;rounded=0;exitX=0.75;exitY=0;exitDx=0;exitDy=0;" parent="1" source="vexe7eD_JmpIkKytq5_M-58" edge="1">
          <mxGeometry width="50" height="50" relative="1" as="geometry">
            <mxPoint x="560" y="220" as="sourcePoint" />
            <mxPoint x="610" y="170" as="targetPoint" />
          </mxGeometry>
        </mxCell>
        <mxCell id="vexe7eD_JmpIkKytq5_M-67" value="" style="endArrow=none;html=1;rounded=0;exitX=1;exitY=0.25;exitDx=0;exitDy=0;" parent="1" source="vexe7eD_JmpIkKytq5_M-58" edge="1">
          <mxGeometry width="50" height="50" relative="1" as="geometry">
            <mxPoint x="580" y="245" as="sourcePoint" />
            <mxPoint x="630" y="195" as="targetPoint" />
          </mxGeometry>
        </mxCell>
        <mxCell id="vexe7eD_JmpIkKytq5_M-68" value="" style="endArrow=none;html=1;rounded=0;entryX=0.005;entryY=0.356;entryDx=0;entryDy=0;entryPerimeter=0;" parent="1" target="vexe7eD_JmpIkKytq5_M-62" edge="1">
          <mxGeometry width="50" height="50" relative="1" as="geometry">
            <mxPoint x="610" y="230" as="sourcePoint" />
            <mxPoint x="660" y="180" as="targetPoint" />
          </mxGeometry>
        </mxCell>
        <mxCell id="vexe7eD_JmpIkKytq5_M-69" value="SaleLine&amp;nbsp;" style="rounded=0;whiteSpace=wrap;html=1;" parent="1" vertex="1">
          <mxGeometry x="-380" y="-80" width="120" height="60" as="geometry" />
        </mxCell>
        <mxCell id="vexe7eD_JmpIkKytq5_M-70" value="Book_id (FK)" style="ellipse;whiteSpace=wrap;html=1;" parent="1" vertex="1">
          <mxGeometry x="-500" y="-70" width="100" height="30" as="geometry" />
        </mxCell>
        <mxCell id="vexe7eD_JmpIkKytq5_M-71" value="Sale_id (FK)" style="ellipse;whiteSpace=wrap;html=1;" parent="1" vertex="1">
          <mxGeometry x="-460" y="-110" width="80" height="30" as="geometry" />
        </mxCell>
        <mxCell id="vexe7eD_JmpIkKytq5_M-72" value="Unit_price" style="ellipse;whiteSpace=wrap;html=1;" parent="1" vertex="1">
          <mxGeometry x="-390" y="-130" width="70" height="30" as="geometry" />
        </mxCell>
        <mxCell id="vexe7eD_JmpIkKytq5_M-73" value="Quantity" style="ellipse;whiteSpace=wrap;html=1;" parent="1" vertex="1">
          <mxGeometry x="-310" y="-120" width="70" height="30" as="geometry" />
        </mxCell>
        <mxCell id="vexe7eD_JmpIkKytq5_M-74" value="&lt;u&gt;Saleline_id&lt;/u&gt;" style="ellipse;whiteSpace=wrap;html=1;" parent="1" vertex="1">
          <mxGeometry x="-240" y="-110" width="70" height="30" as="geometry" />
        </mxCell>
        <mxCell id="vexe7eD_JmpIkKytq5_M-76" value="" style="endArrow=none;html=1;rounded=0;" parent="1" source="vexe7eD_JmpIkKytq5_M-70" edge="1">
          <mxGeometry width="50" height="50" relative="1" as="geometry">
            <mxPoint x="-430" as="sourcePoint" />
            <mxPoint x="-380" y="-50" as="targetPoint" />
          </mxGeometry>
        </mxCell>
        <mxCell id="vexe7eD_JmpIkKytq5_M-77" value="" style="endArrow=none;html=1;rounded=0;exitX=0.748;exitY=0.922;exitDx=0;exitDy=0;exitPerimeter=0;" parent="1" source="vexe7eD_JmpIkKytq5_M-71" edge="1">
          <mxGeometry width="50" height="50" relative="1" as="geometry">
            <mxPoint x="-430" y="-20" as="sourcePoint" />
            <mxPoint x="-380" y="-70" as="targetPoint" />
          </mxGeometry>
        </mxCell>
        <mxCell id="vexe7eD_JmpIkKytq5_M-78" value="" style="endArrow=none;html=1;rounded=0;exitX=0.411;exitY=0.016;exitDx=0;exitDy=0;exitPerimeter=0;" parent="1" source="vexe7eD_JmpIkKytq5_M-69" edge="1">
          <mxGeometry width="50" height="50" relative="1" as="geometry">
            <mxPoint x="-400" y="-50" as="sourcePoint" />
            <mxPoint x="-350" y="-100" as="targetPoint" />
          </mxGeometry>
        </mxCell>
        <mxCell id="vexe7eD_JmpIkKytq5_M-79" value="" style="endArrow=none;html=1;rounded=0;exitX=0.577;exitY=-0.021;exitDx=0;exitDy=0;exitPerimeter=0;entryX=0.32;entryY=0.979;entryDx=0;entryDy=0;entryPerimeter=0;" parent="1" source="vexe7eD_JmpIkKytq5_M-69" target="vexe7eD_JmpIkKytq5_M-73" edge="1">
          <mxGeometry width="50" height="50" relative="1" as="geometry">
            <mxPoint x="-345" y="-40" as="sourcePoint" />
            <mxPoint x="-295" y="-90" as="targetPoint" />
          </mxGeometry>
        </mxCell>
        <mxCell id="vexe7eD_JmpIkKytq5_M-80" value="" style="endArrow=none;html=1;rounded=0;exitX=1.018;exitY=0.347;exitDx=0;exitDy=0;exitPerimeter=0;entryX=0.305;entryY=1.014;entryDx=0;entryDy=0;entryPerimeter=0;" parent="1" source="vexe7eD_JmpIkKytq5_M-69" target="vexe7eD_JmpIkKytq5_M-74" edge="1">
          <mxGeometry width="50" height="50" relative="1" as="geometry">
            <mxPoint x="-270" y="-30" as="sourcePoint" />
            <mxPoint x="-220" y="-80" as="targetPoint" />
          </mxGeometry>
        </mxCell>
        <mxCell id="vexe7eD_JmpIkKytq5_M-81" value="Inventory" style="rounded=0;whiteSpace=wrap;html=1;" parent="1" vertex="1">
          <mxGeometry x="-260" y="520" width="120" height="60" as="geometry" />
        </mxCell>
        <mxCell id="vexe7eD_JmpIkKytq5_M-82" value="&lt;u&gt;Inventory_id&lt;/u&gt;" style="ellipse;whiteSpace=wrap;html=1;" parent="1" vertex="1">
          <mxGeometry x="-380" y="580" width="95" height="30" as="geometry" />
        </mxCell>
        <mxCell id="vexe7eD_JmpIkKytq5_M-83" value="Branch_id (FK)" style="ellipse;whiteSpace=wrap;html=1;" parent="1" vertex="1">
          <mxGeometry x="-140" y="610" width="100" height="40" as="geometry" />
        </mxCell>
        <mxCell id="vexe7eD_JmpIkKytq5_M-84" value="Book_id (FK)" style="ellipse;whiteSpace=wrap;html=1;" parent="1" vertex="1">
          <mxGeometry x="-245" y="620" width="100" height="40" as="geometry" />
        </mxCell>
        <mxCell id="vexe7eD_JmpIkKytq5_M-85" value="Quantity" style="ellipse;whiteSpace=wrap;html=1;" parent="1" vertex="1">
          <mxGeometry x="-345" y="620" width="85" height="40" as="geometry" />
        </mxCell>
        <mxCell id="vexe7eD_JmpIkKytq5_M-86" value="" style="endArrow=none;html=1;rounded=0;exitX=0.654;exitY=0.04;exitDx=0;exitDy=0;exitPerimeter=0;" parent="1" source="vexe7eD_JmpIkKytq5_M-85" edge="1">
          <mxGeometry width="50" height="50" relative="1" as="geometry">
            <mxPoint x="-285" y="630" as="sourcePoint" />
            <mxPoint x="-235" y="580" as="targetPoint" />
          </mxGeometry>
        </mxCell>
        <mxCell id="vexe7eD_JmpIkKytq5_M-87" value="" style="endArrow=none;html=1;rounded=0;exitX=0.3;exitY=0;exitDx=0;exitDy=0;exitPerimeter=0;" parent="1" source="vexe7eD_JmpIkKytq5_M-83" edge="1">
          <mxGeometry width="50" height="50" relative="1" as="geometry">
            <mxPoint x="-225" y="630" as="sourcePoint" />
            <mxPoint x="-175" y="580" as="targetPoint" />
          </mxGeometry>
        </mxCell>
        <mxCell id="vexe7eD_JmpIkKytq5_M-88" value="" style="endArrow=none;html=1;rounded=0;exitX=0.588;exitY=0.08;exitDx=0;exitDy=0;exitPerimeter=0;" parent="1" source="vexe7eD_JmpIkKytq5_M-84" edge="1">
          <mxGeometry width="50" height="50" relative="1" as="geometry">
            <mxPoint x="-245" y="630" as="sourcePoint" />
            <mxPoint x="-195" y="580" as="targetPoint" />
          </mxGeometry>
        </mxCell>
        <mxCell id="vexe7eD_JmpIkKytq5_M-89" value="" style="endArrow=none;html=1;rounded=0;exitX=0.676;exitY=0.08;exitDx=0;exitDy=0;exitPerimeter=0;" parent="1" source="vexe7eD_JmpIkKytq5_M-82" edge="1">
          <mxGeometry width="50" height="50" relative="1" as="geometry">
            <mxPoint x="-310" y="590" as="sourcePoint" />
            <mxPoint x="-260" y="540" as="targetPoint" />
          </mxGeometry>
        </mxCell>
        <mxCell id="vexe7eD_JmpIkKytq5_M-90" value="Belongs_to" style="rhombus;whiteSpace=wrap;html=1;" parent="1" vertex="1">
          <mxGeometry x="-350" y="260" width="80" height="80" as="geometry" />
        </mxCell>
        <mxCell id="vexe7eD_JmpIkKytq5_M-92" value="" style="endArrow=none;html=1;rounded=0;entryX=0.099;entryY=0.651;entryDx=0;entryDy=0;entryPerimeter=0;" parent="1" target="vexe7eD_JmpIkKytq5_M-90" edge="1">
          <mxGeometry width="50" height="50" relative="1" as="geometry">
            <mxPoint x="-440" y="330" as="sourcePoint" />
            <mxPoint x="-390" y="280" as="targetPoint" />
          </mxGeometry>
        </mxCell>
        <mxCell id="vexe7eD_JmpIkKytq5_M-94" value="N" style="edgeLabel;html=1;align=center;verticalAlign=middle;resizable=0;points=[];" parent="vexe7eD_JmpIkKytq5_M-92" vertex="1" connectable="0">
          <mxGeometry x="-0.7672" y="2" relative="1" as="geometry">
            <mxPoint as="offset" />
          </mxGeometry>
        </mxCell>
        <mxCell id="vexe7eD_JmpIkKytq5_M-93" value="" style="shape=link;html=1;rounded=0;exitX=0.912;exitY=0.374;exitDx=0;exitDy=0;exitPerimeter=0;" parent="1" source="vexe7eD_JmpIkKytq5_M-90" edge="1">
          <mxGeometry width="100" relative="1" as="geometry">
            <mxPoint x="-200" y="229.55" as="sourcePoint" />
            <mxPoint x="-100" y="229.55" as="targetPoint" />
          </mxGeometry>
        </mxCell>
        <mxCell id="vexe7eD_JmpIkKytq5_M-95" value="N" style="edgeLabel;html=1;align=center;verticalAlign=middle;resizable=0;points=[];" parent="vexe7eD_JmpIkKytq5_M-93" vertex="1" connectable="0">
          <mxGeometry x="0.8631" y="-1" relative="1" as="geometry">
            <mxPoint as="offset" />
          </mxGeometry>
        </mxCell>
        <mxCell id="vexe7eD_JmpIkKytq5_M-96" value="Written_by" style="rhombus;whiteSpace=wrap;html=1;" parent="1" vertex="1">
          <mxGeometry x="-395" y="140" width="80" height="80" as="geometry" />
        </mxCell>
        <mxCell id="vexe7eD_JmpIkKytq5_M-97" value="" style="endArrow=none;html=1;rounded=0;entryX=0.025;entryY=0.421;entryDx=0;entryDy=0;entryPerimeter=0;" parent="1" target="vexe7eD_JmpIkKytq5_M-96" edge="1">
          <mxGeometry width="50" height="50" relative="1" as="geometry">
            <mxPoint x="-470" y="160" as="sourcePoint" />
            <mxPoint x="-420" y="110" as="targetPoint" />
          </mxGeometry>
        </mxCell>
        <mxCell id="vexe7eD_JmpIkKytq5_M-99" value="N" style="edgeLabel;html=1;align=center;verticalAlign=middle;resizable=0;points=[];" parent="vexe7eD_JmpIkKytq5_M-97" vertex="1" connectable="0">
          <mxGeometry x="-0.6886" y="-1" relative="1" as="geometry">
            <mxPoint as="offset" />
          </mxGeometry>
        </mxCell>
        <mxCell id="vexe7eD_JmpIkKytq5_M-98" value="" style="shape=link;html=1;rounded=0;exitX=0.938;exitY=0.437;exitDx=0;exitDy=0;exitPerimeter=0;" parent="1" source="vexe7eD_JmpIkKytq5_M-96" edge="1">
          <mxGeometry width="100" relative="1" as="geometry">
            <mxPoint x="-200" y="209.17000000000002" as="sourcePoint" />
            <mxPoint x="-100" y="209.17000000000002" as="targetPoint" />
          </mxGeometry>
        </mxCell>
        <mxCell id="vexe7eD_JmpIkKytq5_M-100" value="N" style="edgeLabel;html=1;align=center;verticalAlign=middle;resizable=0;points=[];" parent="vexe7eD_JmpIkKytq5_M-98" vertex="1" connectable="0">
          <mxGeometry x="0.8166" y="2" relative="1" as="geometry">
            <mxPoint as="offset" />
          </mxGeometry>
        </mxCell>
        <mxCell id="vexe7eD_JmpIkKytq5_M-101" value="Works_in" style="rhombus;whiteSpace=wrap;html=1;" parent="1" vertex="1">
          <mxGeometry x="320" y="460" width="80" height="80" as="geometry" />
        </mxCell>
        <mxCell id="vexe7eD_JmpIkKytq5_M-102" value="" style="endArrow=none;html=1;rounded=0;" parent="1" target="vexe7eD_JmpIkKytq5_M-101" edge="1">
          <mxGeometry width="50" height="50" relative="1" as="geometry">
            <mxPoint x="240" y="530" as="sourcePoint" />
            <mxPoint x="290" y="480" as="targetPoint" />
          </mxGeometry>
        </mxCell>
        <mxCell id="vexe7eD_JmpIkKytq5_M-104" value="1" style="edgeLabel;html=1;align=center;verticalAlign=middle;resizable=0;points=[];" parent="vexe7eD_JmpIkKytq5_M-102" vertex="1" connectable="0">
          <mxGeometry x="-0.5971" y="2" relative="1" as="geometry">
            <mxPoint as="offset" />
          </mxGeometry>
        </mxCell>
        <mxCell id="vexe7eD_JmpIkKytq5_M-103" value="" style="shape=link;html=1;rounded=0;exitX=0.95;exitY=0.404;exitDx=0;exitDy=0;exitPerimeter=0;" parent="1" source="vexe7eD_JmpIkKytq5_M-101" edge="1">
          <mxGeometry width="100" relative="1" as="geometry">
            <mxPoint x="400" y="459.17" as="sourcePoint" />
            <mxPoint x="500" y="459.17" as="targetPoint" />
          </mxGeometry>
        </mxCell>
        <mxCell id="vexe7eD_JmpIkKytq5_M-106" value="N" style="edgeLabel;html=1;align=center;verticalAlign=middle;resizable=0;points=[];" parent="vexe7eD_JmpIkKytq5_M-103" vertex="1" connectable="0">
          <mxGeometry x="0.6071" y="4" relative="1" as="geometry">
            <mxPoint as="offset" />
          </mxGeometry>
        </mxCell>
        <mxCell id="vexe7eD_JmpIkKytq5_M-112" value="Purchases" style="rhombus;whiteSpace=wrap;html=1;" parent="1" vertex="1">
          <mxGeometry x="230" y="-45" width="80" height="80" as="geometry" />
        </mxCell>
        <mxCell id="vexe7eD_JmpIkKytq5_M-113" value="" style="shape=link;html=1;rounded=0;" parent="1" target="vexe7eD_JmpIkKytq5_M-112" edge="1">
          <mxGeometry width="100" relative="1" as="geometry">
            <mxPoint x="140" y="-55" as="sourcePoint" />
            <mxPoint x="240" y="-55" as="targetPoint" />
          </mxGeometry>
        </mxCell>
        <mxCell id="vexe7eD_JmpIkKytq5_M-116" value="N" style="edgeLabel;html=1;align=center;verticalAlign=middle;resizable=0;points=[];" parent="vexe7eD_JmpIkKytq5_M-113" vertex="1" connectable="0">
          <mxGeometry x="-0.7417" y="2" relative="1" as="geometry">
            <mxPoint as="offset" />
          </mxGeometry>
        </mxCell>
        <mxCell id="vexe7eD_JmpIkKytq5_M-114" value="" style="endArrow=none;html=1;rounded=0;exitX=1;exitY=0.5;exitDx=0;exitDy=0;" parent="1" source="vexe7eD_JmpIkKytq5_M-112" edge="1">
          <mxGeometry width="50" height="50" relative="1" as="geometry">
            <mxPoint x="360" y="45" as="sourcePoint" />
            <mxPoint x="410" y="-5" as="targetPoint" />
          </mxGeometry>
        </mxCell>
        <mxCell id="vexe7eD_JmpIkKytq5_M-115" value="1" style="edgeLabel;html=1;align=center;verticalAlign=middle;resizable=0;points=[];" parent="vexe7eD_JmpIkKytq5_M-114" vertex="1" connectable="0">
          <mxGeometry x="0.4467" y="4" relative="1" as="geometry">
            <mxPoint as="offset" />
          </mxGeometry>
        </mxCell>
        <mxCell id="vexe7eD_JmpIkKytq5_M-117" value="Processes" style="rhombus;whiteSpace=wrap;html=1;" parent="1" vertex="1">
          <mxGeometry x="320" y="270" width="80" height="80" as="geometry" />
        </mxCell>
        <mxCell id="vexe7eD_JmpIkKytq5_M-118" value="" style="endArrow=none;html=1;rounded=0;entryX=0.712;entryY=0.856;entryDx=0;entryDy=0;entryPerimeter=0;" parent="1" target="vexe7eD_JmpIkKytq5_M-117" edge="1">
          <mxGeometry width="50" height="50" relative="1" as="geometry">
            <mxPoint x="520" y="430" as="sourcePoint" />
            <mxPoint x="280" y="210" as="targetPoint" />
          </mxGeometry>
        </mxCell>
        <mxCell id="vexe7eD_JmpIkKytq5_M-121" value="1" style="edgeLabel;html=1;align=center;verticalAlign=middle;resizable=0;points=[];" parent="vexe7eD_JmpIkKytq5_M-118" vertex="1" connectable="0">
          <mxGeometry x="-0.7832" relative="1" as="geometry">
            <mxPoint as="offset" />
          </mxGeometry>
        </mxCell>
        <mxCell id="vexe7eD_JmpIkKytq5_M-120" value="" style="shape=link;html=1;rounded=0;exitX=0.625;exitY=1.008;exitDx=0;exitDy=0;exitPerimeter=0;entryX=0.212;entryY=0.356;entryDx=0;entryDy=0;entryPerimeter=0;" parent="1" source="vexe7eD_JmpIkKytq5_M-36" target="vexe7eD_JmpIkKytq5_M-117" edge="1">
          <mxGeometry width="100" relative="1" as="geometry">
            <mxPoint x="170" y="178.75" as="sourcePoint" />
            <mxPoint x="270" y="178.75" as="targetPoint" />
          </mxGeometry>
        </mxCell>
        <mxCell id="vexe7eD_JmpIkKytq5_M-122" value="N" style="edgeLabel;html=1;align=center;verticalAlign=middle;resizable=0;points=[];" parent="vexe7eD_JmpIkKytq5_M-120" vertex="1" connectable="0">
          <mxGeometry x="-0.8403" y="-1" relative="1" as="geometry">
            <mxPoint as="offset" />
          </mxGeometry>
        </mxCell>
        <mxCell id="vexe7eD_JmpIkKytq5_M-124" value="Contains" style="rhombus;whiteSpace=wrap;html=1;" parent="1" vertex="1">
          <mxGeometry x="-170" y="-70" width="80" height="80" as="geometry" />
        </mxCell>
        <mxCell id="vexe7eD_JmpIkKytq5_M-125" value="" style="shape=link;html=1;rounded=0;entryX=0;entryY=0.75;entryDx=0;entryDy=0;exitX=0.905;exitY=0.392;exitDx=0;exitDy=0;exitPerimeter=0;" parent="1" source="vexe7eD_JmpIkKytq5_M-124" target="vexe7eD_JmpIkKytq5_M-36" edge="1">
          <mxGeometry width="100" relative="1" as="geometry">
            <mxPoint x="-30" y="15" as="sourcePoint" />
            <mxPoint x="70" y="15" as="targetPoint" />
          </mxGeometry>
        </mxCell>
        <mxCell id="vexe7eD_JmpIkKytq5_M-127" value="1" style="edgeLabel;html=1;align=center;verticalAlign=middle;resizable=0;points=[];" parent="vexe7eD_JmpIkKytq5_M-125" vertex="1" connectable="0">
          <mxGeometry x="0.596" y="-1" relative="1" as="geometry">
            <mxPoint as="offset" />
          </mxGeometry>
        </mxCell>
        <mxCell id="vexe7eD_JmpIkKytq5_M-130" value="" style="shape=link;html=1;rounded=0;entryX=0.109;entryY=0.405;entryDx=0;entryDy=0;entryPerimeter=0;" parent="1" target="vexe7eD_JmpIkKytq5_M-124" edge="1">
          <mxGeometry width="100" relative="1" as="geometry">
            <mxPoint x="-260" y="-40" as="sourcePoint" />
            <mxPoint x="-160" y="-40" as="targetPoint" />
          </mxGeometry>
        </mxCell>
        <mxCell id="vexe7eD_JmpIkKytq5_M-133" value="آ" style="edgeLabel;html=1;align=center;verticalAlign=middle;resizable=0;points=[];" parent="vexe7eD_JmpIkKytq5_M-130" vertex="1" connectable="0">
          <mxGeometry x="-0.7122" relative="1" as="geometry">
            <mxPoint x="1" as="offset" />
          </mxGeometry>
        </mxCell>
        <mxCell id="vexe7eD_JmpIkKytq5_M-134" value="Has_inventory" style="rhombus;whiteSpace=wrap;html=1;" parent="1" vertex="1">
          <mxGeometry x="-150" y="400" width="90" height="80" as="geometry" />
        </mxCell>
        <mxCell id="vexe7eD_JmpIkKytq5_M-135" value="" style="shape=link;html=1;rounded=0;entryX=0;entryY=1;entryDx=0;entryDy=0;exitX=0.5;exitY=0;exitDx=0;exitDy=0;" parent="1" source="vexe7eD_JmpIkKytq5_M-81" target="vexe7eD_JmpIkKytq5_M-134" edge="1">
          <mxGeometry width="100" relative="1" as="geometry">
            <mxPoint x="-240" y="479" as="sourcePoint" />
            <mxPoint x="-145" y="479.47" as="targetPoint" />
          </mxGeometry>
        </mxCell>
        <mxCell id="vexe7eD_JmpIkKytq5_M-137" value="N" style="edgeLabel;html=1;align=center;verticalAlign=middle;resizable=0;points=[];" parent="vexe7eD_JmpIkKytq5_M-135" vertex="1" connectable="0">
          <mxGeometry x="-0.6235" relative="1" as="geometry">
            <mxPoint as="offset" />
          </mxGeometry>
        </mxCell>
        <mxCell id="vexe7eD_JmpIkKytq5_M-136" value="" style="endArrow=none;html=1;rounded=0;entryX=0.387;entryY=1.055;entryDx=0;entryDy=0;entryPerimeter=0;" parent="1" target="vexe7eD_JmpIkKytq5_M-1" edge="1">
          <mxGeometry width="50" height="50" relative="1" as="geometry">
            <mxPoint x="-80" y="420" as="sourcePoint" />
            <mxPoint x="-30" y="370" as="targetPoint" />
          </mxGeometry>
        </mxCell>
        <mxCell id="vexe7eD_JmpIkKytq5_M-138" value="1" style="edgeLabel;html=1;align=center;verticalAlign=middle;resizable=0;points=[];" parent="vexe7eD_JmpIkKytq5_M-136" vertex="1" connectable="0">
          <mxGeometry x="0.7794" y="-3" relative="1" as="geometry">
            <mxPoint as="offset" />
          </mxGeometry>
        </mxCell>
        <mxCell id="vexe7eD_JmpIkKytq5_M-139" value="Stored_in" style="rhombus;whiteSpace=wrap;html=1;" parent="1" vertex="1">
          <mxGeometry x="-50" y="490" width="80" height="80" as="geometry" />
        </mxCell>
        <mxCell id="vexe7eD_JmpIkKytq5_M-141" value="" style="shape=link;html=1;rounded=0;entryX=0.072;entryY=0.642;entryDx=0;entryDy=0;entryPerimeter=0;" parent="1" target="vexe7eD_JmpIkKytq5_M-139" edge="1">
          <mxGeometry width="100" relative="1" as="geometry">
            <mxPoint x="-140" y="560" as="sourcePoint" />
            <mxPoint x="-40" y="560" as="targetPoint" />
          </mxGeometry>
        </mxCell>
        <mxCell id="vexe7eD_JmpIkKytq5_M-144" value="N" style="edgeLabel;html=1;align=center;verticalAlign=middle;resizable=0;points=[];" parent="vexe7eD_JmpIkKytq5_M-141" vertex="1" connectable="0">
          <mxGeometry x="-0.6472" y="1" relative="1" as="geometry">
            <mxPoint as="offset" />
          </mxGeometry>
        </mxCell>
        <mxCell id="vexe7eD_JmpIkKytq5_M-142" value="" style="endArrow=none;html=1;rounded=0;entryX=0;entryY=0.5;entryDx=0;entryDy=0;exitX=0.906;exitY=0.419;exitDx=0;exitDy=0;exitPerimeter=0;" parent="1" source="vexe7eD_JmpIkKytq5_M-139" target="vexe7eD_JmpIkKytq5_M-22" edge="1">
          <mxGeometry width="50" height="50" relative="1" as="geometry">
            <mxPoint x="30" y="520" as="sourcePoint" />
            <mxPoint x="80" y="470" as="targetPoint" />
          </mxGeometry>
        </mxCell>
        <mxCell id="vexe7eD_JmpIkKytq5_M-143" value="1" style="edgeLabel;html=1;align=center;verticalAlign=middle;resizable=0;points=[];" parent="vexe7eD_JmpIkKytq5_M-142" vertex="1" connectable="0">
          <mxGeometry x="0.7066" y="4" relative="1" as="geometry">
            <mxPoint as="offset" />
          </mxGeometry>
        </mxCell>
        <mxCell id="vexe7eD_JmpIkKytq5_M-145" value="Includes" style="rhombus;whiteSpace=wrap;html=1;" parent="1" vertex="1">
          <mxGeometry x="-270" y="15" width="80" height="80" as="geometry" />
        </mxCell>
        <mxCell id="vexe7eD_JmpIkKytq5_M-146" value="" style="shape=link;html=1;rounded=0;entryX=0;entryY=0;entryDx=0;entryDy=0;exitX=0.6;exitY=1.037;exitDx=0;exitDy=0;exitPerimeter=0;" parent="1" source="vexe7eD_JmpIkKytq5_M-69" target="vexe7eD_JmpIkKytq5_M-145" edge="1">
          <mxGeometry width="100" relative="1" as="geometry">
            <mxPoint x="-320" y="-6.110000000000014" as="sourcePoint" />
            <mxPoint x="-220" y="-6.110000000000014" as="targetPoint" />
          </mxGeometry>
        </mxCell>
        <mxCell id="vexe7eD_JmpIkKytq5_M-148" value="N" style="edgeLabel;html=1;align=center;verticalAlign=middle;resizable=0;points=[];" parent="vexe7eD_JmpIkKytq5_M-146" vertex="1" connectable="0">
          <mxGeometry x="-0.6321" y="-1" relative="1" as="geometry">
            <mxPoint as="offset" />
          </mxGeometry>
        </mxCell>
        <mxCell id="vexe7eD_JmpIkKytq5_M-147" value="" style="endArrow=none;html=1;rounded=0;exitX=0.111;exitY=0.015;exitDx=0;exitDy=0;exitPerimeter=0;entryX=0.733;entryY=0.853;entryDx=0;entryDy=0;entryPerimeter=0;" parent="1" source="vexe7eD_JmpIkKytq5_M-1" target="vexe7eD_JmpIkKytq5_M-145" edge="1">
          <mxGeometry width="50" height="50" relative="1" as="geometry">
            <mxPoint x="-230" y="130" as="sourcePoint" />
            <mxPoint x="-180" y="80" as="targetPoint" />
          </mxGeometry>
        </mxCell>
        <mxCell id="vexe7eD_JmpIkKytq5_M-149" value="1" style="edgeLabel;html=1;align=center;verticalAlign=middle;resizable=0;points=[];" parent="vexe7eD_JmpIkKytq5_M-147" vertex="1" connectable="0">
          <mxGeometry x="-0.6553" relative="1" as="geometry">
            <mxPoint as="offset" />
          </mxGeometry>
        </mxCell>
        <mxCell id="vexe7eD_JmpIkKytq5_M-150" value="About" style="rhombus;whiteSpace=wrap;html=1;" parent="1" vertex="1">
          <mxGeometry x="160" y="190" width="80" height="80" as="geometry" />
        </mxCell>
        <mxCell id="vexe7eD_JmpIkKytq5_M-152" value="" style="endArrow=none;html=1;rounded=0;entryX=0.06;entryY=0.634;entryDx=0;entryDy=0;entryPerimeter=0;" parent="1" target="vexe7eD_JmpIkKytq5_M-150" edge="1">
          <mxGeometry width="50" height="50" relative="1" as="geometry">
            <mxPoint x="20" y="240" as="sourcePoint" />
            <mxPoint x="70" y="190" as="targetPoint" />
          </mxGeometry>
        </mxCell>
        <mxCell id="vexe7eD_JmpIkKytq5_M-155" value="1" style="edgeLabel;html=1;align=center;verticalAlign=middle;resizable=0;points=[];" parent="vexe7eD_JmpIkKytq5_M-152" vertex="1" connectable="0">
          <mxGeometry x="-0.6353" y="1" relative="1" as="geometry">
            <mxPoint as="offset" />
          </mxGeometry>
        </mxCell>
        <mxCell id="vexe7eD_JmpIkKytq5_M-153" value="" style="shape=link;html=1;rounded=0;exitX=0.966;exitY=0.61;exitDx=0;exitDy=0;exitPerimeter=0;" parent="1" source="vexe7eD_JmpIkKytq5_M-150" edge="1">
          <mxGeometry width="100" relative="1" as="geometry">
            <mxPoint x="390" y="208.82" as="sourcePoint" />
            <mxPoint x="490" y="208.82" as="targetPoint" />
          </mxGeometry>
        </mxCell>
        <mxCell id="vexe7eD_JmpIkKytq5_M-154" value="N" style="edgeLabel;html=1;align=center;verticalAlign=middle;resizable=0;points=[];" parent="vexe7eD_JmpIkKytq5_M-153" vertex="1" connectable="0">
          <mxGeometry x="0.8317" y="3" relative="1" as="geometry">
            <mxPoint as="offset" />
          </mxGeometry>
        </mxCell>
        <mxCell id="vexe7eD_JmpIkKytq5_M-156" value="Writes" style="rhombus;whiteSpace=wrap;html=1;" parent="1" vertex="1">
          <mxGeometry x="460" y="55" width="80" height="80" as="geometry" />
        </mxCell>
        <mxCell id="vexe7eD_JmpIkKytq5_M-157" value="" style="endArrow=none;html=1;rounded=0;exitX=0.271;exitY=0.171;exitDx=0;exitDy=0;exitPerimeter=0;" parent="1" source="vexe7eD_JmpIkKytq5_M-156" edge="1">
          <mxGeometry width="50" height="50" relative="1" as="geometry">
            <mxPoint x="425" y="75" as="sourcePoint" />
            <mxPoint x="475" y="25" as="targetPoint" />
          </mxGeometry>
        </mxCell>
        <mxCell id="vexe7eD_JmpIkKytq5_M-159" value="1" style="edgeLabel;html=1;align=center;verticalAlign=middle;resizable=0;points=[];" parent="vexe7eD_JmpIkKytq5_M-157" vertex="1" connectable="0">
          <mxGeometry x="0.411" relative="1" as="geometry">
            <mxPoint as="offset" />
          </mxGeometry>
        </mxCell>
        <mxCell id="vexe7eD_JmpIkKytq5_M-158" value="" style="shape=link;html=1;rounded=0;exitX=0.712;exitY=0.846;exitDx=0;exitDy=0;exitPerimeter=0;entryX=0.417;entryY=0;entryDx=0;entryDy=0;entryPerimeter=0;" parent="1" source="vexe7eD_JmpIkKytq5_M-156" target="vexe7eD_JmpIkKytq5_M-58" edge="1">
          <mxGeometry width="100" relative="1" as="geometry">
            <mxPoint x="465" y="169.17" as="sourcePoint" />
            <mxPoint x="565" y="169.17" as="targetPoint" />
          </mxGeometry>
        </mxCell>
        <mxCell id="vexe7eD_JmpIkKytq5_M-160" value="N" style="edgeLabel;html=1;align=center;verticalAlign=middle;resizable=0;points=[];" parent="vexe7eD_JmpIkKytq5_M-158" vertex="1" connectable="0">
          <mxGeometry x="0.61" y="3" relative="1" as="geometry">
            <mxPoint as="offset" />
          </mxGeometry>
        </mxCell>
        <mxCell id="quYCNuAq63E3USG-3z7t-1" value="Manager_id" style="ellipse;whiteSpace=wrap;html=1;" parent="1" vertex="1">
          <mxGeometry x="260" y="540" width="90" height="30" as="geometry" />
        </mxCell>
        <mxCell id="quYCNuAq63E3USG-3z7t-2" value="" style="endArrow=none;html=1;rounded=0;entryX=0;entryY=0.5;entryDx=0;entryDy=0;" parent="1" target="quYCNuAq63E3USG-3z7t-1" edge="1">
          <mxGeometry width="50" height="50" relative="1" as="geometry">
            <mxPoint x="240" y="545" as="sourcePoint" />
            <mxPoint x="290" y="495" as="targetPoint" />
          </mxGeometry>
        </mxCell>
        <mxCell id="quYCNuAq63E3USG-3z7t-3" value="Manages" style="rhombus;whiteSpace=wrap;html=1;" parent="1" vertex="1">
          <mxGeometry x="270" y="380" width="80" height="80" as="geometry" />
        </mxCell>
        <mxCell id="quYCNuAq63E3USG-3z7t-4" value="" style="endArrow=none;html=1;rounded=0;entryX=0;entryY=0.25;entryDx=0;entryDy=0;" parent="1" target="vexe7eD_JmpIkKytq5_M-27" edge="1">
          <mxGeometry width="50" height="50" relative="1" as="geometry">
            <mxPoint x="335" y="410" as="sourcePoint" />
            <mxPoint x="385" y="360" as="targetPoint" />
          </mxGeometry>
        </mxCell>
        <mxCell id="quYCNuAq63E3USG-3z7t-6" value="1" style="edgeLabel;html=1;align=center;verticalAlign=middle;resizable=0;points=[];" parent="quYCNuAq63E3USG-3z7t-4" vertex="1" connectable="0">
          <mxGeometry x="0.588" y="-1" relative="1" as="geometry">
            <mxPoint as="offset" />
          </mxGeometry>
        </mxCell>
        <mxCell id="quYCNuAq63E3USG-3z7t-5" value="" style="shape=link;html=1;rounded=0;exitX=0.668;exitY=0.047;exitDx=0;exitDy=0;exitPerimeter=0;" parent="1" source="vexe7eD_JmpIkKytq5_M-22" edge="1">
          <mxGeometry width="100" relative="1" as="geometry">
            <mxPoint x="180" y="430" as="sourcePoint" />
            <mxPoint x="280" y="430" as="targetPoint" />
          </mxGeometry>
        </mxCell>
        <mxCell id="quYCNuAq63E3USG-3z7t-7" value="1" style="edgeLabel;html=1;align=center;verticalAlign=middle;resizable=0;points=[];" parent="quYCNuAq63E3USG-3z7t-5" vertex="1" connectable="0">
          <mxGeometry x="-0.3474" y="1" relative="1" as="geometry">
            <mxPoint as="offset" />
          </mxGeometry>
        </mxCell>
        <mxCell id="UWRSoT_f7OA52W8l2ve7-1" value="" style="endArrow=none;html=1;rounded=0;entryX=0;entryY=0.5;entryDx=0;entryDy=0;" edge="1" parent="1" target="vexe7eD_JmpIkKytq5_M-46">
          <mxGeometry width="50" height="50" relative="1" as="geometry">
            <mxPoint x="140" y="-70" as="sourcePoint" />
            <mxPoint x="180" y="-70" as="targetPoint" />
          </mxGeometry>
        </mxCell>
      </root>
    </mxGraphModel>
  </diagram>
</mxfile>
